<svg width="276" height="51" viewBox="0 0 276 51" fill="none" xmlns="http://www.w3.org/2000/svg">
<path d="M91.918 23.3398C91.918 24.3828 91.7891 25.3145 91.5312 26.1348C91.2734 26.9551 90.9219 27.6816 90.4766 28.3145C90.043 28.9355 89.5391 29.4688 88.9648 29.9141C88.3906 30.3594 87.7871 30.7227 87.1543 31.0039C86.5332 31.2852 85.9004 31.4902 85.2559 31.6191C84.623 31.748 84.0254 31.8125 83.4629 31.8125H73.127V27.2422H83.4629C84.0488 27.1953 84.5762 27.0781 85.0449 26.8906C85.5254 26.6914 85.9355 26.4277 86.2754 26.0996C86.6152 25.7715 86.8789 25.3789 87.0664 24.9219C87.2539 24.4531 87.3477 23.9258 87.3477 23.3398V21.2656C87.2891 20.6914 87.166 20.1641 86.9785 19.6836C86.791 19.2031 86.5332 18.793 86.2051 18.4531C85.8887 18.1133 85.502 17.8496 85.0449 17.6621C84.5879 17.4629 84.0605 17.3633 83.4629 17.3633H73.1621C72.5527 17.3633 72.0898 17.5215 71.7734 17.8379C71.457 18.1543 71.2988 18.6113 71.2988 19.209V38H66.7285V19.209C66.7285 18.0371 66.9395 17.041 67.3613 16.2207C67.7949 15.4004 68.3281 14.7383 68.9609 14.2344C69.6055 13.7305 70.3027 13.3672 71.0527 13.1445C71.8027 12.9102 72.4941 12.793 73.127 12.793H83.4629C84.4941 12.793 85.4199 12.9277 86.2402 13.1973C87.0605 13.4551 87.7812 13.8066 88.4023 14.252C89.0352 14.6855 89.5684 15.1895 90.002 15.7637C90.4473 16.3379 90.8105 16.9414 91.0918 17.5742C91.3848 18.1953 91.5957 18.8281 91.7246 19.4727C91.8535 20.1055 91.918 20.7031 91.918 21.2656V23.3398ZM118.988 38H98.1406C97.8125 38 97.5078 37.9414 97.2266 37.8242C96.9453 37.707 96.6992 37.5488 96.4883 37.3496C96.2891 37.1387 96.1309 36.8926 96.0137 36.6113C95.8965 36.3301 95.8379 36.0254 95.8379 35.6973V12.793H100.408V33.4297H118.988V38ZM147.078 38H142.508V31.8125H126.441V38H121.871V25.3965C121.871 23.5566 122.188 21.8633 122.82 20.3164C123.453 18.7695 124.332 17.4395 125.457 16.3262C126.582 15.2129 127.912 14.3457 129.447 13.7246C130.982 13.1035 132.658 12.793 134.475 12.793H144.775C145.092 12.793 145.391 12.8516 145.672 12.9688C145.953 13.0859 146.199 13.25 146.41 13.4609C146.621 13.6719 146.785 13.918 146.902 14.1992C147.02 14.4805 147.078 14.7793 147.078 15.0957V38ZM126.441 27.2422H142.508V17.3633H134.475C134.334 17.3633 134.035 17.3867 133.578 17.4336C133.133 17.4688 132.611 17.5684 132.014 17.7324C131.428 17.8965 130.807 18.1484 130.15 18.4883C129.494 18.8281 128.891 19.2969 128.34 19.8945C127.789 20.4922 127.332 21.2422 126.969 22.1445C126.617 23.0352 126.441 24.1191 126.441 25.3965V27.2422ZM176.416 21.2305C176.416 22.2734 176.281 23.2051 176.012 24.0254C175.754 24.8457 175.408 25.5723 174.975 26.2051C174.541 26.8262 174.031 27.3594 173.445 27.8047C172.871 28.25 172.273 28.6191 171.652 28.9121C171.031 29.1934 170.398 29.3984 169.754 29.5273C169.121 29.6562 168.523 29.7207 167.961 29.7207H166.115V38H161.51V29.7207H159.682C159.119 29.7207 158.516 29.6562 157.871 29.5273C157.238 29.3984 156.605 29.1934 155.973 28.9121C155.352 28.6191 154.754 28.25 154.18 27.8047C153.605 27.3594 153.096 26.8262 152.65 26.2051C152.217 25.5723 151.865 24.8457 151.596 24.0254C151.338 23.1934 151.209 22.2617 151.209 21.2305V12.793H155.779V21.2305C155.779 21.8281 155.873 22.3672 156.061 22.8477C156.248 23.3164 156.512 23.7207 156.852 24.0605C157.191 24.4004 157.602 24.6641 158.082 24.8516C158.574 25.0273 159.119 25.1152 159.717 25.1152H167.961C168.395 25.0449 168.84 24.957 169.297 24.8516C169.754 24.7344 170.17 24.541 170.545 24.2715C170.92 24.002 171.23 23.627 171.477 23.1465C171.723 22.666 171.846 22.0273 171.846 21.2305V12.793H176.416V21.2305ZM212.715 12.793L208.496 36.418C208.402 36.8867 208.191 37.291 207.863 37.6309C207.535 37.9707 207.137 38.1875 206.668 38.2812C206.188 38.3633 205.73 38.3105 205.297 38.123C204.875 37.9355 204.541 37.6426 204.295 37.2441L195.928 23.498L187.543 37.2441C187.344 37.584 187.068 37.8477 186.717 38.0352C186.377 38.2227 186.008 38.3164 185.609 38.3164C185.059 38.3164 184.572 38.1406 184.15 37.7891C183.729 37.4375 183.471 36.9805 183.377 36.418L179.123 12.793H183.764L186.787 29.4395L193.994 17.9434C194.193 17.6035 194.463 17.3398 194.803 17.1523C195.154 16.9648 195.529 16.8711 195.928 16.8711C196.326 16.8711 196.695 16.9648 197.035 17.1523C197.375 17.3398 197.656 17.6035 197.879 17.9434L205.051 29.4395L208.074 12.793H212.715ZM245.973 38H241.367V22.9883L233.264 37.2441C233.064 37.6074 232.783 37.8828 232.42 38.0703C232.068 38.2578 231.688 38.3516 231.277 38.3516C230.879 38.3516 230.504 38.2578 230.152 38.0703C229.812 37.8828 229.543 37.6074 229.344 37.2441L221.205 22.9883V38H216.635V14.7441C216.635 14.2168 216.787 13.748 217.092 13.3379C217.408 12.9277 217.818 12.6523 218.322 12.5117C218.568 12.4531 218.814 12.4355 219.061 12.459C219.307 12.4707 219.541 12.5234 219.764 12.6172C219.998 12.6992 220.209 12.8223 220.396 12.9863C220.584 13.1387 220.742 13.3262 220.871 13.5488L231.277 31.6367L241.684 13.5488C241.953 13.1035 242.322 12.7871 242.791 12.5996C243.271 12.4121 243.77 12.3828 244.285 12.5117C244.777 12.6523 245.182 12.9277 245.498 13.3379C245.814 13.748 245.973 14.2168 245.973 14.7441V38ZM272.023 27.6992H257.592V23.0938H272.023V27.6992ZM274.08 38H257.592C256.959 38 256.268 37.8887 255.518 37.666C254.768 37.4434 254.07 37.0801 253.426 36.5762C252.793 36.0605 252.26 35.3984 251.826 34.5898C251.404 33.7695 251.193 32.7676 251.193 31.584V15.0957C251.193 14.7793 251.252 14.4805 251.369 14.1992C251.486 13.918 251.645 13.6719 251.844 13.4609C252.055 13.25 252.301 13.0859 252.582 12.9688C252.863 12.8516 253.168 12.793 253.496 12.793H274.08V17.3633H255.764V31.584C255.764 32.1816 255.922 32.6387 256.238 32.9551C256.555 33.2715 257.018 33.4297 257.627 33.4297H274.08V38Z" fill="#FEFEFE"/>
<path d="M51 0H44.6707L42.0352 1.31773L39.3996 0H26.9941L25.5 0.74707L20.5195 10.8818L25.5 19.1474L42.0352 31.5762L40.541 42.0352H34.5645L30.6911 37.4836L29.8924 34.2395L26.8178 32.9321L25.5 31.3835L22.5117 40.0391L25.5 51L28.1356 49.6823L30.7711 51H51V30.7711L49.6823 28.1356L51 25.5V0ZM42.0352 22.4121L28.5879 8.96484H37.5527L42.0352 13.4473V22.4121Z" fill="#E73545"/>
<path d="M8.96484 11.9531L11.9531 8.96484L25.5 19.1474V0.74707L24.0059 1.49414H15.7464L12.7582 0H0V24.0059L1.49414 26.9941V35.2536L0 38.2418V51H25.5V31.3835L8.96484 11.9531ZM13.4473 42.0352L8.96484 37.5527V28.5879L22.4121 42.0352H13.4473Z" fill="#0A0D27"/>
</svg>
